<?xml version="1.0" encoding="UTF-8"?>
<svg width="66px" height="66px" viewBox="0 0 66 66" version="1.1" xmlns="http://www.w3.org/2000/svg" xmlns:xlink="http://www.w3.org/1999/xlink">
    <!-- Generator: Sketch 54.1 (76490) - https://sketchapp.com -->
    <title>icon_iOS_black</title>
    <desc>Created with Sketch.</desc>
    <g id="Build" stroke="none" stroke-width="1" fill="none" fill-rule="evenodd">
        <g id="Fluent-A" transform="translate(-784.000000, -975.000000)" stroke="#000000" stroke-width="2">
            <g id="Get-Started---iOS" transform="translate(768.000000, 960.000000)">
                <g id="icon_iOS_black" transform="translate(17.000000, 16.000000)">
                    <path d="M48.0022222,64 L15.9977778,64 C7.16222222,64 0,56.8373333 0,48.0022222 L0,15.9977778 C0,7.16266667 7.16222222,0 15.9977778,0 L48.0022222,0 C56.8377778,0 64,7.16266667 64,15.9977778 L64,48.0022222 C64,56.8373333 56.8377778,64 48.0022222,64 Z" id="Stroke-1"></path>
                    <path d="M56,24 C56,19.5782222 52.4217778,16 48,16" id="Stroke-3"></path>
                    <path d="M40,24 C40,19.5782222 43.5782222,16 48,16" id="Stroke-5"></path>
                    <path d="M40,24 C40,28.4217778 43.5782222,32 48,32" id="Stroke-7"></path>
                    <path d="M56,40 C56,35.5782222 52.4217778,32 48,32" id="Stroke-9"></path>
                    <path d="M56,40 C56,44.4217778 52.4217778,48 48,48" id="Stroke-11"></path>
                    <path d="M40,40 C40,44.4217778 43.5782222,48 48,48" id="Stroke-13"></path>
                    <path d="M32,24 C32,19.5782222 28.4217778,16 24,16" id="Stroke-15"></path>
                    <path d="M16,24 C16,19.5782222 19.5782222,16 24,16" id="Stroke-17"></path>
                    <path d="M32,40 C32,44.4217778 28.4217778,48 24,48" id="Stroke-19"></path>
                    <path d="M16,40 C16,44.4217778 19.5782222,48 24,48" id="Stroke-21"></path>
                    <path d="M16,24 L16,40" id="Stroke-23"></path>
                    <path d="M32,24 L32,40" id="Stroke-25"></path>
                    <path d="M8,28 L8,48" id="Stroke-27"></path>
                    <path d="M8,16 L8,20" id="Stroke-29"></path>
                </g>
            </g>
        </g>
    </g>
</svg>