<?xml version="1.0" encoding="UTF-8"?>
<svg width="66px" height="66px" viewBox="0 0 66 66" version="1.1" xmlns="http://www.w3.org/2000/svg" xmlns:xlink="http://www.w3.org/1999/xlink">
    <!-- Generator: Sketch 54.1 (76490) - https://sketchapp.com -->
    <title>icon_web_black</title>
    <desc>Created with Sketch.</desc>
    <g id="Build" stroke="none" stroke-width="1" fill="none" fill-rule="evenodd">
        <g id="Fluent-A" transform="translate(-207.000000, -981.000000)" stroke="#000000" stroke-width="2">
            <g id="Get-Started---Web" transform="translate(0.000000, 960.000000)">
                <g id="Mask">
                    <g id="icon_web_black" transform="translate(208.000000, 22.000000)">
                        <path d="M64,32 C64,49.6733333 49.6733333,64 32,64 C14.3266667,64 0,49.6733333 0,32 C0,14.3266667 14.3266667,0 32,0 C49.6733333,0 64,14.3266667 64,32 Z" id="Stroke-1" stroke-linecap="square"></path>
                        <path d="M48,32 C48,49.6733333 40.8364444,64 32,64 C23.1635556,64 16,49.6733333 16,32 C16,14.3266667 23.1635556,0 32,0 C40.8364444,0 48,14.3266667 48,32 Z" id="Stroke-3" stroke-linecap="square"></path>
                        <path d="M4,16 L60,16" id="Stroke-5"></path>
                        <path d="M4,48 L60,48" id="Stroke-7"></path>
                    </g>
                </g>
            </g>
        </g>
    </g>
</svg>