<?xml version="1.0" encoding="UTF-8"?>
<svg width="66px" height="65px" viewBox="0 0 66 65" version="1.1" xmlns="http://www.w3.org/2000/svg" xmlns:xlink="http://www.w3.org/1999/xlink">
    <!-- Generator: Sketch 54.1 (76490) - https://sketchapp.com -->
    <title>icon_android_black</title>
    <desc>Created with Sketch.</desc>
    <g id="Build" stroke="none" stroke-width="1" fill="none" fill-rule="evenodd">
        <g id="Fluent-A" transform="translate(-1167.000000, -975.000000)" stroke="#000000" stroke-width="2">
            <g id="Get-Started---Android" transform="translate(1152.000000, 960.000000)">
                <g id="icon_android_black" transform="translate(16.000000, 16.000000)">
                    <path d="M0,64 L0,40 C0,22.3266667 14.3266667,8 32,8 C49.6733333,8 64,22.3266667 64,40 L64,64" id="Stroke-1"></path>
                    <path d="M20,24 C20,26.2093333 18.2093333,28 16,28 C13.7906667,28 12,26.2093333 12,24 C12,21.7906667 13.7906667,20 16,20 C18.2093333,20 20,21.7906667 20,24 Z" id="Stroke-3"></path>
                    <path d="M52,24 C52,26.2093333 50.2093333,28 48,28 C45.7906667,28 44,26.2093333 44,24 C44,21.7906667 45.7906667,20 48,20 C50.2093333,20 52,21.7906667 52,24 Z" id="Stroke-5"></path>
                    <path d="M16,12 L8,0" id="Stroke-7"></path>
                    <path d="M48,12 L56,0" id="Stroke-9"></path>
                    <path d="M0,40 L64,40" id="Stroke-11"></path>
                </g>
            </g>
        </g>
    </g>
</svg>